<svg xmlns="http://www.w3.org/2000/svg" width="32" height="32.5" fill="none" viewBox="0 0 80 81"><circle cx="40" cy="40.486" r="40" fill="#8C65F7"/><circle cx="40" cy="40.486" r="22" fill="url(#paint0_radial_130_440)"/><circle cx="40" cy="40.485" r="14" fill="#F5DA59" transform="rotate(-180 40 40.4854)"/><circle cx="40" cy="8.987" r="2.667" fill="#F5DA59"/><circle cx="71.499" cy="40.486" r="2.667" fill="#F5DA59" transform="rotate(90 71.4985 40.486)"/><circle cx="8.501" cy="40.486" r="2.667" fill="#F5DA59" transform="rotate(90 8.50106 40.486)"/><circle cx="67.279" cy="56.235" r="2.667" fill="#F5DA59" transform="rotate(120 67.2786 56.2353)"/><circle cx="12.721" cy="24.737" r="2.667" fill="#F5DA59" transform="rotate(120 12.7212 24.7368)"/><circle cx="67.279" cy="24.736" r="2.667" fill="#F5DA59" transform="rotate(60 67.2789 24.7365)"/><circle cx="12.721" cy="56.236" r="2.667" fill="#F5DA59" transform="rotate(60 12.7214 56.236)"/><circle cx="55.749" cy="13.208" r="2.667" fill="#F5DA59" transform="rotate(30 55.7494 13.2082)"/><circle cx="24.251" cy="67.764" r="2.667" fill="#F5DA59" transform="rotate(30 24.2507 67.7643)"/><circle cx="55.749" cy="67.764" r="2.667" fill="#F5DA59" transform="rotate(150 55.7487 67.7642)"/><circle cx="24.25" cy="13.207" r="2.667" fill="#F5DA59" transform="rotate(150 24.2501 13.2075)"/><circle cx="55.749" cy="67.764" r="2.667" fill="#F5DA59" transform="rotate(150 55.7487 67.7642)"/><circle cx="24.25" cy="13.207" r="2.667" fill="#F5DA59" transform="rotate(150 24.2501 13.2075)"/><circle cx="40" cy="71.985" r="2.667" fill="#F5DA59"/><defs><radialGradient id="paint0_radial_130_440" cx="0" cy="0" r="1" gradientTransform="translate(40 40.4863) rotate(90) scale(22)" gradientUnits="userSpaceOnUse"><stop stop-color="#F5DA59"/><stop offset="1" stop-color="#02E2AC"/></radialGradient></defs></svg>